<svg width="26" height="22" viewBox="0 0 26 22" fill="none" xmlns="http://www.w3.org/2000/svg">
<path d="M15.2833 7.66575C15.0661 7.66575 14.8896 7.48947 14.8896 7.272V6.60285C14.8896 6.38567 15.0659 6.20911 15.2833 6.20911C15.5005 6.20911 15.6771 6.38538 15.6771 6.60285V7.272C15.6771 7.48947 15.5005 7.66575 15.2833 7.66575Z" fill="#103E13"/>
<path d="M13.6279 7.66575C13.4108 7.66575 13.2342 7.48947 13.2342 7.272V6.60285C13.2342 6.38567 13.4105 6.20911 13.6279 6.20911C13.8451 6.20911 14.0217 6.38538 14.0217 6.60285V7.272C14.0214 7.48947 13.8454 7.66575 13.6279 7.66575Z" fill="#103E13"/>
<path d="M11.9727 7.66575C11.7555 7.66575 11.5789 7.48947 11.5789 7.272V6.60285C11.5789 6.38567 11.7552 6.20911 11.9727 6.20911C12.1899 6.20911 12.3664 6.38538 12.3664 6.60285V7.272C12.3664 7.48947 12.1901 7.66575 11.9727 7.66575Z" fill="#103E13"/>
<path d="M15.2833 10.4021C15.0661 10.4021 14.8896 10.2258 14.8896 10.0084V9.33949C14.8896 9.1223 15.0659 8.94574 15.2833 8.94574C15.5005 8.94574 15.6771 9.12202 15.6771 9.33949V10.0084C15.6771 10.2258 15.5005 10.4021 15.2833 10.4021Z" fill="#103E13"/>
<path d="M13.6279 10.4021C13.4108 10.4021 13.2342 10.2258 13.2342 10.0084V9.33949C13.2342 9.1223 13.4105 8.94574 13.6279 8.94574C13.8451 8.94574 14.0217 9.12202 14.0217 9.33949V10.0084C14.0214 10.2258 13.8454 10.4021 13.6279 10.4021Z" fill="#103E13"/>
<path d="M11.9727 10.4021C11.7555 10.4021 11.5789 10.2258 11.5789 10.0084V9.33949C11.5789 9.1223 11.7552 8.94574 11.9727 8.94574C12.1899 8.94574 12.3664 9.12202 12.3664 9.33949V10.0084C12.3664 10.2258 12.1901 10.4021 11.9727 10.4021Z" fill="#103E13"/>
<path d="M15.2833 13.1386C15.0661 13.1386 14.8896 12.9623 14.8896 12.7448V12.0757C14.8896 11.8585 15.0659 11.6819 15.2833 11.6819C15.5005 11.6819 15.6771 11.8582 15.6771 12.0757V12.7448C15.6771 12.9623 15.5005 13.1386 15.2833 13.1386Z" fill="#103E13"/>
<path d="M13.6279 13.1386C13.4108 13.1386 13.2342 12.9623 13.2342 12.7448V12.0757C13.2342 11.8585 13.4105 11.6819 13.6279 11.6819C13.8451 11.6819 14.0217 11.8582 14.0217 12.0757V12.7448C14.0214 12.9623 13.8454 13.1386 13.6279 13.1386Z" fill="#103E13"/>
<path d="M11.9727 13.1386C11.7555 13.1386 11.5789 12.9623 11.5789 12.7448V12.0757C11.5789 11.8585 11.7552 11.6819 11.9727 11.6819C12.1899 11.6819 12.3664 11.8582 12.3664 12.0757V12.7448C12.3664 12.9623 12.1901 13.1386 11.9727 13.1386Z" fill="#103E13"/>
<path d="M15.2833 15.8744C15.0661 15.8744 14.8896 15.6981 14.8896 15.4807V14.8115C14.8896 14.5943 15.0659 14.4178 15.2833 14.4178C15.5005 14.4178 15.6771 14.5941 15.6771 14.8115V15.4807C15.6771 15.6981 15.5005 15.8744 15.2833 15.8744Z" fill="#103E13"/>
<path d="M13.6279 15.8744C13.4108 15.8744 13.2342 15.6981 13.2342 15.4807V14.8115C13.2342 14.5943 13.4105 14.4178 13.6279 14.4178C13.8451 14.4178 14.0217 14.5941 14.0217 14.8115V15.4807C14.0214 15.6981 13.8454 15.8744 13.6279 15.8744Z" fill="#103E13"/>
<path d="M11.9727 15.8744C11.7555 15.8744 11.5789 15.6981 11.5789 15.4807V14.8115C11.5789 14.5943 11.7552 14.4178 11.9727 14.4178C12.1899 14.4178 12.3664 14.5941 12.3664 14.8115V15.4807C12.3664 15.6981 12.1901 15.8744 11.9727 15.8744Z" fill="#103E13"/>
<path d="M15.2833 18.6108C15.0661 18.6108 14.8896 18.4345 14.8896 18.217V17.5482C14.8896 17.331 15.0659 17.1544 15.2833 17.1544C15.5005 17.1544 15.6771 17.3307 15.6771 17.5482V18.217C15.6771 18.4342 15.5005 18.6108 15.2833 18.6108Z" fill="#103E13"/>
<path d="M13.6279 18.6108C13.4108 18.6108 13.2342 18.4345 13.2342 18.217V17.5482C13.2342 17.331 13.4105 17.1544 13.6279 17.1544C13.8451 17.1544 14.0217 17.3307 14.0217 17.5482V18.217C14.0214 18.4342 13.8454 18.6108 13.6279 18.6108Z" fill="#103E13"/>
<path d="M11.9727 18.6108C11.7555 18.6108 11.5789 18.4345 11.5789 18.217L11.5792 17.5482C11.5792 17.331 11.7555 17.1544 11.9729 17.1544C12.1901 17.1544 12.3667 17.3307 12.3667 17.5482V18.217C12.3664 18.4342 12.1901 18.6108 11.9727 18.6108Z" fill="#103E13"/>
<path d="M0.724451 21.334C0.724451 21.5512 0.90073 21.7277 1.1182 21.7277H25.0962C25.3134 21.7277 25.49 21.5514 25.49 21.334C25.49 21.1168 25.3137 20.9402 25.0962 20.9402H24.3684V9.63516C24.3684 9.41797 24.1921 9.24141 23.9746 9.24141L17.5459 9.24168V1.09132C17.5459 0.953484 17.474 0.82608 17.3564 0.754684C17.2392 0.683021 17.0926 0.678628 16.9707 0.742054L9.66169 4.54745C9.53127 4.61528 9.45 4.74982 9.45 4.89672V12.0159H2.3765C2.15932 12.0159 1.98276 12.1922 1.98276 12.4097V20.9403H1.11732C0.900133 20.94 0.724121 21.1163 0.724121 21.3338L0.724451 21.334ZM17.546 15.2051H23.5813V20.9406L17.546 20.9403V15.2051ZM17.546 12.469H23.5813V14.4179L17.546 14.4177V12.469ZM17.546 10.0288H23.5813V11.682H17.546V10.0288ZM10.2371 5.13581L16.7583 1.74035V20.9399H10.2371V5.13581ZM4.71669 17.7954C4.71669 16.9783 5.36414 16.3132 6.16014 16.3132C6.95613 16.3132 7.60387 16.978 7.60387 17.7954V20.9404H4.71669V17.7954ZM2.77023 12.8033H9.44988V20.9403H8.39135V17.7953C8.39135 16.544 7.39081 15.5259 6.16014 15.5259C4.93003 15.5259 3.92949 16.5437 3.92949 17.7953V20.9403H2.77023V12.8033Z" fill="#103E13"/>
</svg>
